<?xml version="1.0" standalone="no"?>
<!DOCTYPE svg PUBLIC "-//W3C//DTD SVG 20010904//EN"
 "http://www.w3.org/TR/2001/REC-SVG-20010904/DTD/svg10.dtd">
<svg version="1.0" xmlns="http://www.w3.org/2000/svg"
 width="1024.000000pt" height="1024.000000pt" viewBox="0 0 1024.000000 1024.000000"
 preserveAspectRatio="xMidYMid meet">

<g transform="translate(0.000000,1024.000000) scale(0.100000,-0.100000)"
fill="#000000" stroke="none">
<path d="M3997 8599 c-49 -8 -87 -36 -109 -80 -14 -27 -18 -60 -18 -156 l0
-123 -138 0 c-90 0 -159 -5 -197 -15 -82 -21 -210 -86 -268 -136 -97 -83 -183
-232 -207 -354 -8 -44 -10 -461 -8 -1540 l3 -1480 22 -58 c43 -113 87 -181
168 -262 63 -64 98 -89 165 -122 47 -23 110 -47 140 -55 45 -10 322 -13 1490
-13 l1435 0 56 28 c149 73 548 602 658 874 55 134 66 195 65 363 0 140 -3 164
-28 245 -15 50 -43 118 -62 152 l-34 61 0 879 c0 718 -3 890 -14 945 -38 176
-165 338 -327 416 -116 57 -188 72 -344 72 l-130 0 -1 118 c0 100 -4 123 -23
160 -30 59 -71 82 -146 82 -69 0 -118 -21 -149 -63 -18 -24 -22 -47 -26 -160
l-5 -132 -872 -3 -873 -2 0 115 c0 128 -10 163 -57 208 -34 31 -104 47 -166
36z m-127 -716 c0 -113 15 -154 69 -190 47 -32 147 -32 202 -1 59 33 79 83 79
196 l0 92 875 0 875 0 0 -104 c0 -90 3 -107 23 -137 27 -41 98 -79 147 -79 44
0 118 36 142 70 24 34 40 127 33 196 l-5 56 137 -4 c177 -5 232 -24 314 -109
88 -89 101 -132 107 -361 l5 -188 -1783 0 -1783 0 5 178 c4 145 9 187 26 235
30 82 79 147 143 185 82 50 129 61 267 61 l122 1 0 -97z m3000 -1273 c0 -247
-1 -450 -3 -450 -2 0 -40 18 -85 40 -129 63 -184 75 -357 75 -126 0 -160 -4
-215 -22 -277 -91 -472 -275 -564 -531 -29 -83 -31 -94 -31 -237 0 -183 17
-251 105 -430 67 -138 156 -276 293 -459 53 -70 97 -129 97 -130 0 0 -566 1
-1257 4 l-1258 5 -58 28 c-68 34 -144 107 -175 170 -52 104 -52 99 -52 1285
l0 1102 1780 0 1780 0 0 -450z m-316 -605 c217 -46 386 -215 431 -430 29 -137
12 -242 -64 -402 -77 -159 -163 -286 -379 -560 l-105 -132 -109 137 c-257 324
-389 541 -433 708 -20 77 -19 216 1 285 28 95 74 171 143 239 139 138 327 195
515 155z"/>
<path d="M3823 6696 l-28 -24 -3 -171 -3 -172 34 -34 35 -35 151 0 c162 0 199
8 222 51 6 12 13 86 15 172 3 160 -5 205 -44 226 -13 7 -87 11 -186 11 -160 0
-166 -1 -193 -24z"/>
<path d="M4550 6707 c-13 -7 -30 -24 -37 -37 -17 -33 -18 -319 -2 -354 22 -48
64 -58 229 -54 148 3 150 3 177 31 28 27 28 30 31 169 4 168 -1 202 -35 234
-25 23 -31 24 -182 24 -105 0 -164 -4 -181 -13z"/>
<path d="M5252 6710 c-43 -18 -54 -69 -50 -230 5 -216 9 -220 230 -220 216 0
221 5 216 250 l-3 162 -28 24 c-27 23 -33 24 -185 23 -86 0 -167 -4 -180 -9z"/>
<path d="M3823 5966 l-28 -24 -3 -169 c-3 -188 2 -207 58 -235 28 -14 61 -18
160 -18 230 0 235 5 232 243 -2 107 -7 175 -14 187 -21 34 -55 40 -218 40
-153 0 -160 -1 -187 -24z"/>
<path d="M4533 5966 l-28 -24 -3 -165 c-5 -245 5 -257 223 -257 218 0 228 12
223 257 l-3 165 -28 24 c-27 23 -33 24 -192 24 -159 0 -165 -1 -192 -24z"/>
<path d="M3841 5246 c-44 -25 -50 -50 -51 -218 0 -86 4 -168 10 -182 5 -14 24
-35 42 -46 30 -19 47 -20 186 -18 l154 3 29 33 29 32 0 175 c0 169 -1 175 -24
202 l-24 28 -164 3 c-123 1 -169 -1 -187 -12z"/>
<path d="M6348 5740 c-80 -24 -169 -114 -193 -193 -59 -198 74 -378 280 -381
309 -3 409 415 133 553 -51 26 -73 31 -127 30 -36 0 -78 -4 -93 -9z"/>
<path d="M7140 3609 c-45 -18 -60 -40 -60 -84 0 -54 31 -85 94 -92 40 -5 48
-2 76 25 50 51 38 121 -25 148 -39 16 -51 17 -85 3z"/>
<path d="M4291 3595 c-138 -39 -212 -142 -197 -273 15 -125 93 -190 307 -255
135 -42 182 -85 165 -151 -16 -63 -93 -96 -191 -81 -52 7 -106 48 -125 95 -7
16 -15 30 -19 30 -13 -1 -153 -39 -158 -43 -9 -9 34 -92 66 -130 98 -111 350
-139 493 -54 150 90 167 315 30 414 -36 27 -87 46 -248 92 -129 38 -170 110
-105 183 28 32 32 33 105 33 69 0 77 -2 106 -30 17 -16 33 -40 36 -52 4 -13
10 -23 14 -23 15 0 154 30 158 34 2 2 -7 27 -19 55 -26 62 -92 123 -157 146
-67 24 -195 28 -261 10z"/>
<path d="M5590 3155 l0 -456 83 3 c45 2 81 6 80 11 -2 4 -3 207 -3 452 l0 445
-80 0 -80 0 0 -455z"/>
<path d="M930 3150 l0 -450 290 0 290 0 0 80 0 80 -200 0 -200 0 0 108 0 107
175 -3 175 -3 0 78 0 78 -177 0 -178 0 -3 108 -3 107 201 0 200 0 0 80 0 80
-285 0 -285 0 0 -450z"/>
<path d="M3830 3523 c-8 -1 -41 -5 -72 -8 l-57 -6 -3 -82 -3 -82 -53 0 -52 0
0 -67 0 -68 54 0 54 0 4 -207 c3 -172 6 -213 20 -239 25 -46 72 -64 165 -64
123 0 123 0 123 80 l0 68 -44 -5 c-61 -7 -90 2 -104 32 -8 16 -12 84 -12 180
l0 155 80 0 80 0 0 69 0 69 -80 -5 -79 -5 -3 93 c-2 77 -6 94 -18 92z"/>
<path d="M6743 3517 l-73 -9 0 -79 0 -79 -60 0 -60 0 0 -70 0 -70 59 0 60 0 3
-209 c3 -238 6 -246 89 -289 38 -21 54 -23 124 -19 115 7 115 7 115 83 l0 64
-39 -6 c-22 -3 -55 -1 -75 6 -58 19 -66 46 -66 220 l0 150 95 0 95 0 0 71 0
70 -92 -2 -93 -2 -5 89 -5 89 -72 -8z"/>
<path d="M2416 3336 c-73 -31 -137 -92 -168 -160 -19 -42 -23 -68 -23 -147 0
-90 2 -100 35 -165 64 -124 169 -180 328 -172 120 6 193 46 245 135 5 7 -16
24 -57 46 l-65 34 -27 -28 c-90 -94 -266 -46 -290 79 l-7 33 229 -1 229 -1 0
73 c0 181 -102 286 -285 295 -74 3 -93 1 -144 -21z m210 -131 c29 -19 50 -50
59 -87 l7 -28 -151 0 c-83 0 -151 2 -151 5 0 13 40 82 54 94 48 40 134 48 182
16z"/>
<path d="M3216 3345 c-21 -7 -54 -28 -72 -46 l-34 -33 0 40 0 39 -80 0 -80 0
0 -322 0 -323 80 0 80 0 0 203 c0 184 2 205 20 235 53 86 173 97 220 20 18
-30 20 -51 20 -245 l0 -213 85 0 85 0 0 228 c0 186 -3 237 -16 277 -41 118
-185 184 -308 140z"/>
<path d="M5069 3347 c-199 -56 -295 -253 -224 -459 21 -61 80 -126 146 -163
51 -28 60 -30 169 -30 109 0 118 2 169 30 68 38 125 102 152 174 17 45 20 72
17 141 -3 73 -9 94 -38 148 -38 72 -73 105 -148 139 -64 30 -176 39 -243 20z
m186 -156 c16 -9 40 -34 52 -56 59 -106 25 -243 -74 -294 -32 -16 -110 -14
-149 5 -106 50 -125 238 -33 326 21 20 51 39 66 41 44 7 105 -2 138 -22z"/>
<path d="M7620 3351 c-160 -34 -273 -190 -257 -355 13 -129 66 -215 168 -271
47 -25 67 -30 149 -33 79 -3 105 0 152 18 173 65 254 277 173 456 -52 116
-149 183 -277 189 -40 2 -89 1 -108 -4z m127 -140 c34 -2 90 -57 109 -107 21
-54 15 -149 -13 -195 -33 -57 -66 -74 -143 -74 -54 0 -74 4 -97 21 -40 30 -64
75 -70 136 -13 130 66 233 172 222 11 -1 30 -2 42 -3z"/>
<path d="M8401 3346 c-18 -6 -51 -27 -72 -44 l-39 -33 0 38 0 38 -77 -1 -78
-1 -3 -321 -2 -322 85 0 85 0 0 208 c0 188 2 210 20 239 36 59 117 80 181 47
52 -27 59 -60 59 -289 l0 -205 86 0 85 0 -3 248 c-3 247 -3 247 -30 292 -58
99 -188 146 -297 106z"/>
<path d="M9005 3351 c-70 -18 -134 -70 -154 -124 -16 -42 -13 -114 5 -154 29
-60 95 -93 245 -123 31 -6 66 -20 78 -31 40 -37 20 -85 -42 -98 -55 -13 -107
2 -142 41 -30 33 -31 33 -75 22 -25 -7 -55 -13 -67 -13 -28 -1 -29 -11 -4 -59
44 -85 124 -125 251 -126 67 0 96 5 135 23 93 41 125 90 125 189 0 98 -58 158
-180 183 -110 23 -133 31 -156 54 -43 44 -1 98 77 97 46 -1 89 -25 97 -54 4
-15 10 -19 31 -14 14 3 47 9 74 12 26 4 47 12 47 18 0 7 -13 32 -28 57 -42 65
-112 100 -210 105 -42 2 -90 0 -107 -5z"/>
<path d="M1570 3339 c0 -5 14 -46 31 -91 16 -46 62 -171 100 -278 39 -107 76
-211 83 -230 l14 -35 93 0 94 0 112 315 c62 173 113 317 113 320 0 3 -36 5
-80 5 l-80 0 -50 -144 c-28 -80 -63 -185 -78 -235 l-27 -89 -76 233 -77 233
-86 2 c-47 1 -86 -2 -86 -6z"/>
<path d="M5890 3103 c0 -218 3 -253 19 -288 64 -141 269 -176 380 -65 l33 34
-5 -42 -4 -42 83 0 84 0 0 325 0 325 -85 0 -85 0 0 -203 c1 -112 -3 -214 -9
-228 -13 -35 -65 -77 -105 -84 -45 -9 -101 16 -126 57 -18 30 -20 50 -20 246
l0 212 -80 0 -80 0 0 -247z"/>
<path d="M7100 3025 l0 -325 80 0 80 0 0 325 0 325 -80 0 -80 0 0 -325z"/>
</g>
</svg>
