<?xml version="1.0" standalone="no"?>
<!DOCTYPE svg PUBLIC "-//W3C//DTD SVG 20010904//EN"
 "http://www.w3.org/TR/2001/REC-SVG-20010904/DTD/svg10.dtd">
<svg version="1.0" xmlns="http://www.w3.org/2000/svg"
 width="1024.000000pt" height="1024.000000pt" viewBox="0 0 1024.000000 1024.000000"
 preserveAspectRatio="xMidYMid meet">

<g transform="translate(0.000000,1024.000000) scale(0.100000,-0.100000)"
fill="#000000" stroke="none">
<path d="M1282 6674 c-34 -23 -46 -53 -52 -124 l-5 -64 -45 2 c-73 5 -180 -16
-246 -48 -108 -53 -190 -163 -214 -290 -14 -72 -14 -1818 0 -1891 32 -172 179
-316 354 -348 40 -7 332 -11 890 -11 804 0 832 1 863 19 38 24 186 192 264
302 74 103 143 237 163 315 33 126 15 274 -45 384 -18 33 -19 66 -21 646 l-3
610 -38 76 c-61 125 -166 202 -306 228 -35 6 -80 10 -100 8 -34 -3 -36 -1 -39
27 -8 95 -15 119 -42 147 -33 32 -83 37 -129 13 -36 -18 -43 -35 -50 -118 l-6
-68 -510 0 -510 0 -5 72 c-5 64 -8 73 -38 100 -37 33 -93 39 -130 13z m-50
-426 c3 -64 7 -73 36 -99 24 -22 42 -29 73 -29 76 0 101 29 109 128 l5 64 510
-1 510 0 3 -65 c2 -55 7 -69 31 -95 24 -26 37 -31 74 -31 78 0 123 59 115 153
l-3 42 70 -2 c118 -4 206 -63 241 -162 8 -22 13 -85 14 -158 l0 -123 -1071 0
-1071 0 4 133 c3 114 7 138 27 176 52 100 123 134 287 138 l32 1 4 -70z m1788
-839 c0 -160 -3 -289 -7 -287 -142 72 -230 89 -344 65 -42 -8 -102 -27 -134
-42 -80 -38 -175 -130 -218 -212 -126 -242 -76 -454 182 -776 34 -41 61 -78
61 -81 0 -3 -327 -6 -727 -6 l-728 0 -52 24 c-62 29 -128 93 -154 149 -18 40
-19 77 -19 750 l0 707 1070 0 1070 0 0 -291z m-125 -413 c142 -65 233 -237
205 -387 -13 -67 -44 -132 -115 -238 -65 -97 -206 -273 -216 -269 -4 2 -41 43
-82 91 -96 112 -189 247 -230 334 -28 60 -32 78 -31 153 0 73 4 94 29 144 84
175 273 249 440 172z"/>
<path d="M1235 5458 c-32 -18 -35 -28 -35 -140 0 -136 2 -138 142 -138 135 0
138 4 138 149 0 102 -2 111 -22 125 -27 19 -192 22 -223 4z"/>
<path d="M1655 5445 c-23 -22 -25 -31 -25 -124 0 -96 1 -100 26 -120 23 -18
41 -21 118 -21 133 0 136 3 136 141 0 145 -4 149 -135 149 -88 0 -98 -2 -120
-25z"/>
<path d="M2086 5449 c-25 -20 -26 -24 -26 -124 0 -100 1 -104 26 -124 23 -18
41 -21 118 -21 133 0 136 3 136 140 0 105 -1 109 -26 129 -22 18 -41 21 -114
21 -73 0 -92 -3 -114 -21z"/>
<path d="M1221 4984 c-18 -23 -21 -41 -21 -121 0 -136 -3 -133 138 -133 79 0
122 4 130 12 17 17 17 239 0 256 -8 8 -49 12 -119 12 -104 0 -108 -1 -128 -26z"/>
<path d="M1647 4989 c-21 -30 -19 -236 3 -249 8 -5 68 -10 133 -10 109 0 118
2 125 20 13 36 15 230 2 245 -10 12 -40 15 -131 15 -108 0 -119 -2 -132 -21z"/>
<path d="M1222 4554 c-20 -14 -22 -23 -22 -124 0 -139 1 -140 146 -140 132 0
134 2 134 138 0 137 -4 142 -138 142 -72 0 -103 -4 -120 -16z"/>
<path d="M2707 4845 c-74 -26 -117 -88 -117 -168 0 -57 14 -94 48 -130 39 -41
74 -57 129 -57 128 0 212 143 154 262 -24 51 -61 82 -117 97 -48 13 -50 13
-97 -4z"/>
<path d="M3870 5948 c0 -2 -1 -225 -3 -496 l-2 -492 328 0 327 0 0 85 0 85
-235 0 -235 0 0 120 0 120 200 0 200 0 0 85 0 85 -200 0 -200 0 0 123 0 122
227 0 228 0 0 80 0 80 -317 3 c-175 1 -318 1 -318 0z"/>
<path d="M7090 5871 l-65 -6 -3 -92 -3 -93 -69 0 -68 0 -4 -76 c-2 -42 -1 -78
1 -80 2 -2 35 -4 73 -4 l68 0 0 -194 c0 -216 8 -258 62 -313 49 -51 104 -67
199 -60 44 4 84 9 90 12 5 4 9 40 9 80 l0 75 -73 -6 c-72 -6 -74 -6 -95 21
-21 26 -22 38 -22 206 l0 179 95 0 96 0 -3 78 -3 77 -92 3 -92 3 -3 97 c-3
109 4 102 -98 93z"/>
<path d="M5594 5690 c-94 -20 -194 -92 -233 -169 -26 -51 -51 -149 -51 -203 0
-59 25 -151 57 -210 53 -97 148 -154 275 -164 120 -11 218 20 299 93 37 33 75
90 67 98 -2 2 -37 14 -79 26 l-77 22 -31 -36 c-40 -44 -86 -60 -161 -55 -91 6
-156 67 -162 150 l-3 33 270 2 270 1 -2 81 c-2 137 -68 243 -187 301 -68 33
-177 46 -252 30z m138 -130 c48 -14 97 -55 114 -97 28 -65 33 -63 -172 -63
l-185 0 7 23 c20 66 61 111 121 132 47 17 67 18 115 5z"/>
<path d="M6492 5690 c-55 -12 -104 -42 -142 -88 l-30 -37 0 58 0 58 -85 -3
-85 -3 -3 -358 -2 -358 88 3 89 3 -1 200 c-2 233 7 280 64 335 34 33 41 35
100 35 53 0 67 -4 89 -24 14 -14 30 -41 36 -60 5 -20 10 -138 10 -263 l0 -228
91 0 91 0 -4 278 c-3 266 -4 279 -26 324 -50 101 -161 152 -280 128z"/>
<path d="M4564 5663 c4 -10 69 -171 145 -358 l138 -340 85 -3 85 -3 83 203
c46 112 114 274 151 361 l67 157 -93 0 -94 0 -71 -182 c-40 -101 -83 -213 -97
-250 -24 -65 -43 -87 -43 -50 0 9 -39 122 -86 250 l-86 232 -95 0 c-85 0 -94
-2 -89 -17z"/>
<path d="M5490 4260 l0 -520 90 0 90 0 0 520 0 520 -90 0 -90 0 0 -520z"/>
<path d="M7186 4773 l-59 -4 8 -107 c3 -59 7 -108 9 -109 1 -1 42 1 91 5 85 7
90 8 89 30 0 12 -1 60 -2 107 l-2 85 -37 -2 c-21 -1 -64 -3 -97 -5z"/>
<path d="M4069 4737 c-176 -50 -263 -199 -214 -365 32 -107 102 -157 291 -206
146 -38 186 -55 211 -93 58 -88 -25 -182 -160 -183 -95 0 -159 37 -199 113
-10 21 -25 37 -31 34 -7 -3 -39 -10 -72 -17 -89 -18 -89 -17 -56 -85 60 -125
147 -188 286 -208 131 -19 265 18 354 99 71 64 99 146 82 241 -28 147 -103
210 -309 259 -130 30 -188 57 -207 95 -23 43 -18 75 15 112 74 84 245 64 296
-35 14 -27 19 -29 52 -24 20 3 59 7 85 8 27 1 50 5 52 9 10 15 -58 129 -97
164 -67 61 -137 87 -242 91 -55 3 -109 -1 -137 -9z"/>
<path d="M6705 4641 l-30 -6 -5 -90 -5 -90 -70 0 -70 0 0 -80 0 -80 68 0 68
-1 2 -189 c3 -216 12 -258 67 -316 46 -48 101 -63 203 -55 43 3 82 8 88 11 5
4 9 39 9 80 l0 73 -74 -5 c-66 -5 -75 -4 -95 16 -21 21 -21 29 -19 203 l3 182
88 -3 87 -3 0 87 0 87 -87 -3 -88 -3 -3 97 -3 97 -52 -1 c-29 -1 -65 -4 -82
-8z"/>
<path d="M4934 4470 c-112 -24 -225 -116 -265 -217 -32 -81 -32 -223 0 -305
32 -82 80 -139 147 -175 202 -107 444 -41 537 146 105 209 18 453 -187 530
-65 24 -172 34 -232 21z m203 -186 c129 -98 96 -355 -53 -404 -53 -18 -126 -8
-174 24 -110 73 -121 279 -20 370 37 33 51 40 105 49 38 6 108 -13 142 -39z"/>
<path d="M8640 4470 c-61 -8 -100 -31 -149 -86 l-41 -47 0 62 0 62 -87 -3 -88
-3 -3 -358 -2 -358 90 3 90 3 3 225 c2 206 4 228 23 265 30 58 75 85 140 85
64 0 108 -31 124 -88 5 -20 10 -139 10 -264 l0 -228 91 0 90 0 -3 283 c-3 252
-5 286 -22 317 -53 101 -144 145 -266 130z"/>
<path d="M9221 4465 c-126 -36 -204 -144 -187 -259 15 -99 75 -143 232 -171
56 -11 108 -26 127 -39 69 -46 32 -116 -65 -123 -68 -5 -117 19 -140 69 l-17
36 -73 -28 c-40 -15 -74 -34 -75 -41 -5 -25 41 -93 82 -120 55 -38 137 -59
227 -59 183 0 280 80 279 232 0 141 -76 206 -280 238 -54 9 -81 19 -98 36 -22
22 -23 26 -9 52 38 73 177 63 206 -14 7 -18 15 -24 28 -20 9 3 44 10 76 15 33
6 61 13 63 15 9 8 -26 74 -58 111 -19 21 -53 47 -77 58 -59 25 -172 31 -241
12z"/>
<path d="M7654 4452 c-270 -94 -336 -439 -122 -638 47 -43 73 -58 129 -75 192
-58 386 24 472 200 29 61 32 74 32 166 0 89 -4 106 -28 157 -41 84 -129 162
-213 188 -83 25 -199 26 -270 2z m213 -153 c145 -54 163 -286 30 -392 -75 -61
-201 -44 -260 35 -39 54 -49 92 -45 171 4 87 29 134 93 172 44 27 130 34 182
14z"/>
<path d="M5812 4183 c3 -265 4 -280 26 -328 45 -97 97 -129 217 -129 97 -1
149 22 195 86 l30 41 0 -57 0 -57 83 3 82 3 0 355 0 355 -85 0 -85 0 -5 -235
c-6 -261 -10 -280 -73 -319 -67 -41 -153 -22 -190 42 -8 15 -14 98 -17 267
l-5 245 -88 3 -89 3 4 -278z"/>
<path d="M7145 4447 c-3 -6 -4 -167 -3 -357 l3 -345 88 0 c48 0 87 3 87 8 0 4
0 165 0 357 l0 350 -85 0 c-60 0 -87 -4 -90 -13z"/>
</g>
</svg>
