<?xml version="1.0" standalone="no"?>
<!DOCTYPE svg PUBLIC "-//W3C//DTD SVG 20010904//EN"
 "http://www.w3.org/TR/2001/REC-SVG-20010904/DTD/svg10.dtd">
<svg version="1.0" xmlns="http://www.w3.org/2000/svg"
 width="512.000000pt" height="512.000000pt" viewBox="0 0 512.000000 512.000000"
 preserveAspectRatio="xMidYMid meet">

<g transform="translate(0.000000,512.000000) scale(0.100000,-0.100000)"
fill="#000000" stroke="none">
<path d="M1847 5069 c-59 -14 -138 -55 -186 -96 -50 -42 -116 -139 -126 -183
l-7 -30 -207 0 c-242 0 -283 -8 -355 -71 -60 -53 -87 -107 -94 -185 l-5 -62
-146 -4 c-119 -3 -157 -8 -205 -26 -123 -45 -228 -156 -266 -280 -20 -63 -20
-99 -20 -1892 0 -1792 0 -1829 20 -1891 46 -148 156 -251 315 -295 78 -21
2686 -21 2768 1 81 21 132 50 194 108 115 109 143 199 143 470 0 187 -7 224
-48 260 -29 27 -92 33 -130 13 -56 -29 -62 -54 -62 -258 0 -101 -5 -200 -11
-221 -13 -49 -63 -105 -114 -128 -38 -18 -105 -19 -1360 -19 -1262 0 -1322 1
-1360 19 -48 22 -79 54 -100 103 -13 33 -15 235 -15 1838 0 1957 -3 1837 53
1899 44 47 92 61 223 61 l121 0 5 -63 c7 -79 34 -133 94 -186 84 -74 46 -71
983 -71 538 0 849 4 873 10 58 16 130 71 161 122 19 30 33 72 40 117 l11 71
116 0 c90 0 124 -4 155 -19 51 -23 101 -79 114 -128 7 -24 11 -219 11 -535 l0
-497 31 -35 c39 -45 84 -55 136 -30 74 37 73 27 73 579 0 540 -4 582 -59 679
-17 29 -55 75 -84 103 -99 94 -188 123 -372 123 l-121 0 -11 71 c-7 45 -21 87
-40 117 -31 51 -103 106 -161 122 -20 5 -130 10 -243 10 l-205 0 -24 56 c-28
69 -120 170 -188 207 -93 51 -218 69 -315 46z m178 -248 c71 -32 125 -113 125
-189 0 -39 29 -83 65 -98 27 -11 92 -14 294 -14 247 0 261 -1 271 -19 6 -11
10 -89 10 -181 0 -92 -4 -170 -10 -181 -10 -19 -30 -19 -828 -19 -623 0 -821
3 -830 12 -17 17 -17 359 0 376 9 9 83 12 272 12 244 0 263 1 294 20 35 21 62
72 62 115 0 14 7 42 15 63 44 103 159 149 260 103z"/>
<path d="M928 3464 c-54 -29 -73 -105 -42 -165 31 -61 -10 -59 1066 -59 968 0
983 0 1016 20 45 28 68 82 53 130 -6 20 -22 47 -37 61 l-26 24 -1001 2 c-873
2 -1006 0 -1029 -13z"/>
<path d="M4381 3269 c-30 -5 -82 -21 -115 -36 -56 -24 -127 -92 -948 -912
-488 -487 -892 -896 -898 -910 -17 -42 -120 -571 -120 -617 0 -49 38 -98 85
-110 28 -7 580 97 638 120 15 6 423 407 908 891 831 831 882 884 916 952 65
131 56 299 -22 423 -93 148 -273 228 -444 199z m178 -267 c57 -34 91 -96 91
-165 0 -69 -19 -101 -115 -197 l-85 -85 -140 140 -140 140 88 88 c66 66 98 91
132 102 58 18 113 10 169 -23z m-416 -480 l137 -137 -683 -682 -682 -682 -172
-34 c-95 -19 -173 -33 -173 -32 0 1 16 80 35 176 l35 174 678 678 c372 372
679 677 682 677 3 0 67 -62 143 -138z"/>
<path d="M928 2824 c-54 -29 -73 -105 -42 -165 31 -61 -10 -59 1066 -59 968 0
983 0 1016 20 45 28 68 82 53 130 -6 20 -22 47 -37 61 l-26 24 -1001 2 c-873
2 -1006 0 -1029 -13z"/>
<path d="M928 2184 c-80 -43 -75 -176 7 -210 53 -22 1643 -21 1685 1 42 22 60
53 60 105 0 52 -18 83 -60 105 -43 22 -1651 22 -1692 -1z"/>
<path d="M928 1544 c-80 -43 -75 -176 7 -210 52 -21 1133 -21 1175 1 42 22 60
53 60 105 0 52 -18 83 -60 105 -43 22 -1141 22 -1182 -1z"/>
<path d="M928 904 c-54 -29 -73 -105 -42 -165 30 -58 35 -59 576 -59 477 0
494 1 526 20 19 12 40 37 49 58 21 50 2 107 -46 139 l-34 23 -501 0 c-424 -1
-505 -3 -528 -16z"/>
</g>
</svg>
