<?xml version="1.0" standalone="no"?>
<!DOCTYPE svg PUBLIC "-//W3C//DTD SVG 20010904//EN"
 "http://www.w3.org/TR/2001/REC-SVG-20010904/DTD/svg10.dtd">
<svg version="1.0" xmlns="http://www.w3.org/2000/svg"
 width="512.000000pt" height="512.000000pt" viewBox="0 0 512.000000 512.000000"
 preserveAspectRatio="xMidYMid meet">

<g transform="translate(0.000000,512.000000) scale(0.100000,-0.100000)"
fill="#000000" stroke="none">
<path d="M2165 5095 c-16 -15 -25 -35 -25 -56 0 -28 17 -49 117 -150 74 -75
111 -120 102 -122 -8 -3 -68 -12 -134 -21 -221 -29 -452 -104 -675 -217 -653
-331 -1101 -977 -1191 -1714 -15 -125 -15 -402 0 -515 59 -441 233 -842 509
-1171 236 -281 569 -515 915 -643 121 -45 160 -38 181 31 14 46 -16 77 -111
113 -644 239 -1121 772 -1287 1436 -80 318 -80 670 0 988 198 793 839 1389
1646 1531 158 28 158 30 36 -92 -58 -60 -109 -118 -113 -130 -12 -43 30 -92
80 -93 25 0 58 28 227 198 175 175 198 201 198 230 0 40 -21 64 -237 268 -175
167 -192 176 -238 129z"/>
<path d="M3194 4658 c-23 -11 -44 -48 -44 -77 0 -35 35 -60 142 -101 661 -253
1134 -814 1283 -1521 33 -153 45 -475 26 -636 -59 -472 -257 -880 -590 -1214
-233 -232 -490 -393 -791 -493 -136 -45 -358 -96 -421 -96 l-34 0 106 108 c59
59 109 115 112 125 8 22 -9 66 -31 83 -9 8 -30 14 -47 14 -25 0 -58 -28 -227
-198 -179 -179 -198 -201 -198 -231 0 -31 18 -52 176 -211 178 -179 215 -210
253 -210 33 0 71 44 71 81 0 28 -17 49 -117 150 -74 76 -111 120 -102 123 8 2
57 9 108 15 450 55 917 288 1256 626 353 353 573 808 635 1310 15 116 15 406
0 515 -110 840 -648 1526 -1422 1814 -105 39 -112 40 -144 24z"/>
<path d="M2895 3816 c-300 -70 -518 -280 -597 -576 -24 -92 -27 -266 -5 -354
l15 -60 -498 -503 -498 -504 -5 -57 c-4 -31 -9 -140 -13 -242 -6 -183 -6 -185
17 -209 l22 -24 221 7 c233 7 279 15 297 48 6 12 28 84 48 161 l37 141 137 32
c76 19 146 38 157 44 21 11 35 52 70 211 l22 96 101 13 c56 7 115 17 132 21
18 6 77 56 150 128 l120 120 55 -15 c84 -24 265 -21 365 5 284 74 498 293 566
578 18 73 20 108 16 208 -9 215 -74 363 -227 515 -103 104 -190 158 -325 200
-90 28 -290 37 -380 16z m310 -161 c201 -51 373 -212 439 -409 110 -328 -77
-684 -414 -788 -100 -30 -254 -30 -350 1 -36 11 -76 21 -89 21 -18 0 -61 -36
-160 -134 l-136 -135 -120 -16 c-66 -9 -134 -22 -152 -30 -36 -16 -42 -33 -83
-217 l-22 -96 -140 -33 c-78 -18 -149 -40 -159 -49 -12 -9 -32 -66 -55 -155
-21 -77 -40 -143 -43 -146 -3 -4 -65 -9 -138 -13 l-132 -6 5 147 6 148 510
511 c498 500 510 513 506 545 -3 19 -13 63 -23 99 -23 84 -23 223 -1 310 57
212 234 389 446 444 73 19 231 20 305 1z"/>
<path d="M2979 3480 c-136 -23 -275 -132 -252 -198 8 -24 523 -542 550 -552
36 -15 79 7 118 60 131 179 119 403 -30 559 -67 70 -132 107 -222 126 -74 16
-95 17 -164 5z m198 -186 c59 -28 97 -69 126 -133 22 -51 26 -139 7 -195 l-12
-38 -184 183 c-154 154 -181 185 -167 193 58 32 152 28 230 -10z"/>
</g>
</svg>
